<svg id="Layer_1" data-name="Layer 1" xmlns="http://www.w3.org/2000/svg" viewBox="0 0 1058 260"><defs><style>.cls-1{fill:#0040e6;}</style></defs><title>Artboard 1</title><path class="cls-1" d="M282.58,11.47h71.9c27.08,0,50.22,23.39,50.22,52.69,0,21.42-12.31,39.15-29.29,47a1.13,1.13,0,0,0-.49,1.72l31.52,70.67c.49,1.23-.49,1.23-1.24,1.23H384.76a2.44,2.44,0,0,1-2.45-1.23L352.75,117.1a1.83,1.83,0,0,0-1.72-1.23H306a1.16,1.16,0,0,0-1.23,1.23v66.48a1.16,1.16,0,0,1-1.23,1.23H282.58a1.17,1.17,0,0,1-1.24-1.23V12.7A1.17,1.17,0,0,1,282.58,11.47ZM306,32.4a1.16,1.16,0,0,0-1.23,1.23V93.71A1.16,1.16,0,0,0,306,94.95h46.54c15-.49,28.81-14,28.81-30.78,0-17-14.28-31.76-29.8-31.76Z"/><path class="cls-1" d="M484.23,187.28c-38.65,0-61.06-26.34-61.06-64.75,0-38.66,22.41-64.76,61.06-64.76,38.41,0,61.06,26.35,61.06,64.76S522.64,187.28,484.23,187.28Zm0-108.58c-23.38,0-37.68,18.22-37.68,43.83s14.29,43.83,37.68,43.83c23.64,0,37.68-18.22,37.68-43.83S507.87,78.69,484.23,78.69Z"/><path class="cls-1" d="M660.53,184.82c-.75,0-1-.49-1.24-1.23l-2.47-11.08c-.48-1.47-2.21-1-2.71-.25-4.43,6.41-16.49,15-32.25,15-40.62,0-53.67-26.1-53.67-58.11V61.46a1.16,1.16,0,0,1,1.23-1.23h20.93a1.16,1.16,0,0,1,1.23,1.23v67.71c0,18.71,8.37,37.18,32.76,37.18,20.68,0,32.49-18,32.49-37.18V61.46a1.17,1.17,0,0,1,1.24-1.23H679a1.16,1.16,0,0,1,1.23,1.23V183.58a1.16,1.16,0,0,1-1.23,1.23Z"/><path class="cls-1" d="M773.29,183.58a1.17,1.17,0,0,1-1.24,1.23h-19c-20.44.49-32.25-8.87-32.25-29.06V79.92a1.17,1.17,0,0,0-1.24-1.23H697.7a1.17,1.17,0,0,1-1.24-1.23v-16a1.17,1.17,0,0,1,1.24-1.23h21.9A1.16,1.16,0,0,0,720.85,59V25.76a1.16,1.16,0,0,1,1.23-1.23H743a1.16,1.16,0,0,1,1.23,1.23V59a1.16,1.16,0,0,0,1.24,1.23h26.58a1.17,1.17,0,0,1,1.24,1.23v16a1.17,1.17,0,0,1-1.24,1.23H745.47a1.17,1.17,0,0,0-1.24,1.23v71.65c0,7.63,3.45,12.31,13.31,12.31h14.52a1.17,1.17,0,0,1,1.24,1.23Z"/><path class="cls-1" d="M815.14,132.12c0,18,13.05,34.23,35,34.23,17.49,0,26.1-7.39,31.28-17.24.49-1,1-1.23,1.72-1.23H905c.73,0,1.48.25,1.23,1.23-6.4,24.13-28.32,38.16-56.14,38.16-36.93,0-59.83-26.34-59.83-64.75,0-38.66,21.68-64.76,59.83-64.76,38.41,0,60.09,26.35,60.09,64.76a31.79,31.79,0,0,1-.75,7.14c-.24.74-.49,1.23-1.23,1.23H816.37A1.16,1.16,0,0,0,815.14,132.12Zm35-53.43c-23.88,0-35,20.93-35,32.5a1.32,1.32,0,0,0,1.23,1.23h67a1.16,1.16,0,0,0,1.23-1.23C884.58,97.16,874.48,78.69,850.1,78.69Z"/><path class="cls-1" d="M957,132.12c0,18,13.05,34.23,35,34.23,17.48,0,26.09-7.39,31.26-17.24.49-1,1-1.23,1.73-1.23h21.9c.75,0,1.48.25,1.24,1.23-6.41,24.13-28.32,38.16-56.14,38.16-36.94,0-59.83-26.34-59.83-64.75,0-38.66,21.66-64.76,59.83-64.76,38.41,0,60.07,26.35,60.07,64.76a31.82,31.82,0,0,1-.73,7.14c-.25.74-.49,1.23-1.24,1.23H958.2A1.17,1.17,0,0,0,957,132.12Zm35-53.43c-23.89,0-35,20.93-35,32.5a1.33,1.33,0,0,0,1.24,1.23h67a1.16,1.16,0,0,0,1.23-1.23C1026.39,97.16,1016.3,78.69,991.93,78.69Z"/><path class="cls-1" d="M108,162.42a11.61,11.61,0,0,1,0-23.21,54.47,54.47,0,0,0,0-108.94,11.59,11.59,0,1,1,0-23.19,77.67,77.67,0,0,1,0,155.33Z"/><path class="cls-1" d="M31.51,18.27A12.46,12.46,0,1,1,19,5.83,12.46,12.46,0,0,1,31.51,18.27Z"/><path class="cls-1" d="M31.51,62.8A12.46,12.46,0,1,1,19,50.34,12.45,12.45,0,0,1,31.51,62.8Z"/><path class="cls-1" d="M31.51,107.3A12.46,12.46,0,1,1,19,94.85,12.46,12.46,0,0,1,31.51,107.3Z"/><path class="cls-1" d="M31.51,151.81A12.46,12.46,0,1,1,19,139.37,12.46,12.46,0,0,1,31.51,151.81Z"/><path class="cls-1" d="M31.51,196.34A12.46,12.46,0,1,1,19,183.89,12.45,12.45,0,0,1,31.51,196.34Z"/><path class="cls-1" d="M31.51,240.85A12.46,12.46,0,1,1,19,228.4,12.46,12.46,0,0,1,31.51,240.85Z"/><path class="cls-1" d="M76.31,151.81a12.45,12.45,0,1,1-12.46-12.44A12.46,12.46,0,0,1,76.31,151.81Z"/><path class="cls-1" d="M121.13,196.34a12.45,12.45,0,1,1-12.46-12.45A12.45,12.45,0,0,1,121.13,196.34Z"/><path class="cls-1" d="M165.93,240.85a12.45,12.45,0,1,1-12.46-12.45A12.45,12.45,0,0,1,165.93,240.85Z"/><path class="cls-1" d="M281.34,238.6c0-9.16,6.8-14.25,13.6-14.25,6.26,0,10.66,3.4,12.05,8.69l-3.52,1.24c-1-4.13-4.06-6.45-8.54-6.45-5,0-9.74,3.63-9.74,10.78s4.75,10.82,9.74,10.82a8.71,8.71,0,0,0,8.73-6.57l3.36,1.24c-1.47,5.14-5.79,8.81-12.09,8.81C287.87,252.9,281.34,247.76,281.34,238.6Z"/><path class="cls-1" d="M329,243c0,5.68-3.94,9.89-9.5,9.89S310,248.68,310,243s3.94-9.85,9.5-9.85S329,237.37,329,243Zm-3.71,0c0-4.29-2.7-6.61-5.79-6.61s-5.79,2.32-5.79,6.61,2.7,6.64,5.79,6.64S325.27,247.33,325.27,243Z"/><path class="cls-1" d="M333.46,252.32V233.73h3.48v2.47a6.41,6.41,0,0,1,5.64-3,5.8,5.8,0,0,1,5.56,3.52,6.67,6.67,0,0,1,6.22-3.52c3.25,0,6.41,2.2,6.41,7.07v12.05h-3.59V240.65c0-2.43-1.2-4.25-3.94-4.25-2.55,0-4.29,2-4.29,4.67v11.24h-3.63V240.65c0-2.4-1.16-4.25-3.94-4.25-2.59,0-4.33,1.93-4.33,4.71v11.2Z"/><path class="cls-1" d="M366.41,252.32V233.73h3.48v2.47a6.41,6.41,0,0,1,5.64-3,5.8,5.8,0,0,1,5.56,3.52,6.67,6.67,0,0,1,6.22-3.52c3.25,0,6.41,2.2,6.41,7.07v12.05h-3.59V240.65c0-2.43-1.2-4.25-3.94-4.25-2.55,0-4.29,2-4.29,4.67v11.24h-3.63V240.65c0-2.4-1.16-4.25-3.94-4.25-2.59,0-4.33,1.93-4.33,4.71v11.2Z"/><path class="cls-1" d="M406.12,252.9c-4.33,0-7-3.25-7-7.46V233.73h3.63V244.9c0,2.55,1.16,4.79,4.21,4.79s4.4-1.93,4.4-4.75v-11.2H415v15.14a31.25,31.25,0,0,0,.19,3.44h-3.48a16.42,16.42,0,0,1-.15-2.24C410.6,252,408.28,252.9,406.12,252.9Z"/><path class="cls-1" d="M424.7,252.32h-3.63V233.73h3.55v2.67a6.36,6.36,0,0,1,5.72-3.21c4.44,0,6.64,3.21,6.64,7.34v11.78h-3.63V241.15c0-2.59-1.08-4.67-4.33-4.67-2.86,0-4.33,2.28-4.33,5.1Z"/><path class="cls-1" d="M444.4,224.08a2.61,2.61,0,1,1-2.59,2.63A2.61,2.61,0,0,1,444.4,224.08Zm-1.78,28.24V233.73h3.59v18.58Z"/><path class="cls-1" d="M454.41,243c0,4.25,2.67,6.53,5.68,6.53a5.05,5.05,0,0,0,5.18-3.82l3.21,1.39a8.54,8.54,0,0,1-8.38,5.79c-5.41,0-9.39-4.25-9.39-9.89,0-5.79,4.06-9.85,9.35-9.85a8.08,8.08,0,0,1,8.27,5.91L465,240.46a4.87,4.87,0,0,0-5-3.94C457.11,236.52,454.41,238.68,454.41,243Z"/><path class="cls-1" d="M477,241.69l5-.73c1.12-.15,1.43-.73,1.43-1.39,0-1.82-1.2-3.32-4-3.32a3.94,3.94,0,0,0-4.21,3.75l-3.48-.81c.39-3.55,3.59-6,7.61-6,5.56,0,7.73,3.17,7.73,6.8v9.31a17.48,17.48,0,0,0,.23,3.05H483.8a13.59,13.59,0,0,1-.19-2.51,6.77,6.77,0,0,1-6,3.09c-3.79,0-6.22-2.63-6.22-5.56C471.4,244,473.84,242.16,477,241.69Zm6.45,2.67v-.85l-5.68.85a2.78,2.78,0,0,0-2.7,2.78,2.82,2.82,0,0,0,3,2.7C481.1,249.84,483.5,248.41,483.5,244.36Z"/><path class="cls-1" d="M497.48,233.73h4V237h-4v9.66c0,1.7.7,2.55,2.59,2.55a7.36,7.36,0,0,0,1.43-.15v3.09a8,8,0,0,1-2.47.35c-3.17,0-5.18-1.93-5.18-5.29V237h-3.55v-3.28h1a2.6,2.6,0,0,0,2.86-2.86v-3h3.32Z"/><path class="cls-1" d="M507.95,224.08a2.61,2.61,0,1,1-2.59,2.63A2.61,2.61,0,0,1,507.95,224.08Zm-1.78,28.24V233.73h3.59v18.58Z"/><path class="cls-1" d="M533.25,243c0,5.68-3.94,9.89-9.5,9.89s-9.5-4.21-9.5-9.89,3.94-9.85,9.5-9.85S533.25,237.37,533.25,243Zm-3.71,0c0-4.29-2.7-6.61-5.79-6.61S518,238.72,518,243s2.7,6.64,5.79,6.64S529.54,247.33,529.54,243Z"/><path class="cls-1" d="M541.36,252.32h-3.63V233.73h3.55v2.67a6.36,6.36,0,0,1,5.72-3.21c4.44,0,6.64,3.21,6.64,7.34v11.78H550V241.15c0-2.59-1.08-4.67-4.33-4.67-2.86,0-4.33,2.28-4.33,5.1Z"/><path class="cls-1" d="M581.81,249.5a6.22,6.22,0,0,1-5.76,3.32c-5.45,0-8.81-4.4-8.81-9.93,0-5.25,3.55-9.66,8.81-9.66,3.28,0,5.06,1.62,5.68,3.13v-2.63h3.59v15.14a32.37,32.37,0,0,0,.19,3.44H582a15.58,15.58,0,0,1-.19-2.51Zm-5.41.12c3.32,0,5.37-2.9,5.37-6.72s-2-6.45-5.33-6.45-5.49,2.63-5.49,6.45S572.92,249.61,576.4,249.61Z"/><path class="cls-1" d="M592.7,246.33c.23,1.93,1.7,3.48,4.33,3.48,2,0,3.17-1.16,3.17-2.47,0-1.16-.85-2-2.4-2.39l-3.17-.7c-2.9-.62-4.64-2.59-4.64-5.22,0-3.17,3-5.87,6.61-5.87,5.1,0,6.68,3.32,7.07,5l-3.21,1.2a3.6,3.6,0,0,0-3.86-3.09c-1.85,0-3.09,1.2-3.09,2.47,0,1.12.7,1.93,2.12,2.24l3,.66c3.36.73,5.14,2.78,5.14,5.52s-2.2,5.76-6.8,5.76c-5.1,0-7.26-3.28-7.57-5.41Z"/><path class="cls-1" d="M631,249.5a6.22,6.22,0,0,1-5.76,3.32c-5.45,0-8.81-4.4-8.81-9.93,0-5.25,3.55-9.66,8.81-9.66,3.28,0,5.06,1.62,5.68,3.13v-2.63h3.59v15.14a32.35,32.35,0,0,0,.19,3.44h-3.52a15.57,15.57,0,0,1-.19-2.51Zm-5.41.12c3.32,0,5.37-2.9,5.37-6.72s-2-6.45-5.33-6.45-5.49,2.63-5.49,6.45S622.1,249.61,625.58,249.61Z"/><path class="cls-1" d="M664.28,232.34a5.56,5.56,0,0,0-5.79-4.67c-3.09,0-5.29,2-5.29,4.56,0,2,1.2,3.48,3.52,4l4.09.89c4.56,1,7.11,3.86,7.11,7.69,0,4.25-3.63,8.11-9.46,8.11-6.61,0-9.74-4.25-10.24-8.15l3.63-1.16a6.22,6.22,0,0,0,6.57,5.87c3.79,0,5.64-2,5.64-4.37,0-2-1.35-3.67-4.09-4.25l-3.9-.85c-3.9-.85-6.68-3.4-6.68-7.49,0-4.29,4-8.15,9-8.15,6.18,0,8.65,3.82,9.27,6.8Z"/><path class="cls-1" d="M688.77,247a8.42,8.42,0,0,1-8.34,5.87c-5,0-9.35-3.63-9.35-9.93,0-5.83,4.21-9.81,8.89-9.81,5.72,0,8.92,3.94,8.92,9.74a8.14,8.14,0,0,1-.08,1.16h-14a5.52,5.52,0,0,0,5.6,5.64,5.06,5.06,0,0,0,5.22-3.75Zm-3.67-5.91c-.08-2.67-1.82-4.75-5.1-4.75a5,5,0,0,0-5.06,4.75Z"/><path class="cls-1" d="M703.69,237.4a11.33,11.33,0,0,0-1.58-.12c-3.05,0-5.1,1.62-5.1,5.72v9.31h-3.63V233.73h3.55V237a5.82,5.82,0,0,1,5.56-3.55,6.83,6.83,0,0,1,1.2.12Z"/><path class="cls-1" d="M715.89,252.32h-3.67l-7.53-18.58h4.09l5.29,14.33,5.33-14.33h3.9Z"/><path class="cls-1" d="M728.41,224.08a2.61,2.61,0,1,1-2.59,2.63A2.61,2.61,0,0,1,728.41,224.08Zm-1.78,28.24V233.73h3.59v18.58Z"/><path class="cls-1" d="M738.41,243c0,4.25,2.67,6.53,5.68,6.53a5.05,5.05,0,0,0,5.18-3.82l3.21,1.39a8.54,8.54,0,0,1-8.38,5.79c-5.41,0-9.39-4.25-9.39-9.89,0-5.79,4.06-9.85,9.35-9.85a8.08,8.08,0,0,1,8.27,5.91L749,240.46a4.87,4.87,0,0,0-5-3.94C741.12,236.52,738.41,238.68,738.41,243Z"/><path class="cls-1" d="M772.76,247a8.42,8.42,0,0,1-8.34,5.87c-5,0-9.35-3.63-9.35-9.93,0-5.83,4.21-9.81,8.89-9.81,5.72,0,8.92,3.94,8.92,9.74a8.15,8.15,0,0,1-.08,1.16h-14a5.52,5.52,0,0,0,5.6,5.64,5.06,5.06,0,0,0,5.22-3.75Zm-3.67-5.91c-.08-2.67-1.82-4.75-5.1-4.75a5,5,0,0,0-5.06,4.75Z"/></svg>